<?xml version="1.0" encoding="UTF-8"?>
<svg id="Layer_2" data-name="Layer 2" xmlns="http://www.w3.org/2000/svg" viewBox="0 0 124.92 21.9">
  <defs>
    <style>
      .cls-1 {
        font-family: GillSansNova-CnBold, 'Gill Sans Nova';
        font-size: 10px;
        font-weight: 700;
      }

      .cls-1, .cls-2 {
        fill: #7f1416;
      }

      .cls-3 {
        fill: #dd9a28;
      }

      .cls-4 {
        letter-spacing: -.02em;
      }

      .cls-5 {
        fill: #58595b;
      }

      .cls-6 {
        letter-spacing: -.01em;
      }

      .cls-7 {
        letter-spacing: 0em;
      }
    </style>
  </defs>
  <g id="Layer_1-2" data-name="Layer 1">
    <g>
      <path class="cls-5" d="M28.31,10.71v1.79h-2.69v2.59h2.45v1.79h-2.45v2.91h2.82v1.79h-5.05v-10.87h4.92Z"/>
      <path class="cls-5" d="M34.08,10.71l1.81,3.68,1.81-3.68h1.99v10.87h-2.13v-6.87h-.03l-1.55,3.19h-.16l-1.56-3.19h-.03v6.87h-2.11v-10.87h1.98Z"/>
      <path class="cls-5" d="M46.15,16.26v3.35c0,.34.06.46.28.46.08,0,.28-.06.5-.24v1.37c-.47.39-.93.54-1.43.54-.63,0-1.07-.24-1.19-.89-.59.72-1.03.93-1.66.93-1.02,0-1.64-.86-1.64-1.84,0-.76.31-1.43,1.53-2.15.5-.29.94-.49,1.64-.81v-.49c0-.54-.24-.8-.78-.8-.57,0-1.3.31-2.05,1.07v-1.72c.76-.63,1.69-.89,2.52-.89,1.43,0,2.28.67,2.28,2.13ZM43.47,20.29c.28,0,.57-.24.72-.59v-1.71c-.86.49-1.25.98-1.25,1.61,0,.41.18.68.54.68Z"/>
      <path class="cls-5" d="M51.91,16.34c-.26-.18-.46-.26-.68-.26-1.01,0-1.3,1.55-1.42,3.14v2.36h-1.95v-7.27h1.87v1.98h.03c.42-1.5.83-2.08,1.53-2.08.31,0,.59.1.89.31l-.28,1.82Z"/>
      <path class="cls-5" d="M54.89,12.24h.41v2.07h1.48v1.38h-1.48v3.32c0,.67.15,1.04.6,1.04.31,0,.6-.15.93-.33v1.59c-.63.33-1.09.44-1.59.44-1.19,0-1.89-.62-1.89-2.05v-4.02h-.91v-.47l2.46-2.98Z"/>
    </g>
    <rect class="cls-5" x="29.22" y="15.05" width="1.77" height="1.77"/>
    <text class="cls-1" transform="translate(23.26 8.34)"><tspan class="cls-4" x="0" y="0">T</tspan><tspan x="3.78" y="0">he Uni</tspan><tspan class="cls-6" x="25.18" y="0">v</tspan><tspan x="28.8" y="0">ersi</tspan><tspan class="cls-7" x="40.92" y="0">t</tspan><tspan x="43.94" y="0">y of Chicago</tspan></text>
    <circle class="cls-3" cx="10.23" cy="11.67" r="10.23"/>
    <path class="cls-2" d="M10.1,3.78v1.44c0,.38-.31.69-.69.69h-2.87c-.38,0-.69.31-.69.69v2.7c0,.38.31.69.69.69h2.48c.38,0,.69.31.69.69v1.44c0,.38-.31.69-.69.69h-2.48c-.38,0-.69.31-.69.69v3.22c0,.38.31.69.69.69h3.07c.38,0,.69.31.69.69v1.44c0,.38-.31.69-.69.69H3.03c-.38,0-.69-.31-.69-.69V3.78c0-.38.31-.69.69-.69h6.39c.38,0,.69.31.69.69Z"/>
    <rect class="cls-2" x="13.57" y="10" width="2.82" height="2.82" rx=".43" ry=".43"/>
  </g>
</svg>