<?xml version="1.0" encoding="UTF-8"?>
<svg id="Layer_2" data-name="Layer 2" xmlns="http://www.w3.org/2000/svg" viewBox="0 0 92.81 43.24">
  <defs>
    <style>
      .cls-1 {
        fill: #7f1416;
      }

      .cls-2 {
        fill: #dd9a28;
      }
    </style>
  </defs>
  <g id="Layer_1-2" data-name="Layer 1">
    <rect class="cls-1" y="35.69" width="39.19" height="7.27"/>
    <g>
      <path class="cls-1" d="M48.96,26.43v2.72h-4.06v3.94h3.69v2.72h-3.69v4.43h4.26v2.72h-7.62v-16.53h7.42Z"/>
      <path class="cls-1" d="M57.79,26.43l2.75,5.59,2.75-5.59h3.02v16.53h-3.24v-10.44h-.05l-2.35,4.85h-.25l-2.38-4.85h-.05v10.44h-3.22v-16.53h3.02Z"/>
      <path class="cls-1" d="M76.15,34.87v5.1c0,.52.1.69.42.69.12,0,.42-.1.77-.37v2.08c-.72.59-1.41.82-2.18.82-.97,0-1.63-.37-1.81-1.36-.89,1.09-1.56,1.41-2.52,1.41-1.56,0-2.5-1.31-2.5-2.8,0-1.16.47-2.18,2.33-3.27.77-.45,1.44-.74,2.5-1.24v-.74c0-.82-.37-1.21-1.19-1.21-.87,0-1.98.47-3.12,1.63v-2.62c1.16-.97,2.57-1.36,3.84-1.36,2.18,0,3.47,1.01,3.47,3.24ZM72.07,41.01c.42,0,.87-.37,1.09-.89v-2.6c-1.31.74-1.91,1.48-1.91,2.45,0,.62.27,1.04.82,1.04Z"/>
      <path class="cls-1" d="M84.91,34.99c-.4-.27-.69-.4-1.04-.4-1.53,0-1.98,2.35-2.15,4.78v3.59h-2.97v-11.06h2.85v3.02h.05c.64-2.28,1.26-3.17,2.33-3.17.47,0,.89.15,1.36.47l-.42,2.77Z"/>
      <path class="cls-1" d="M89.44,28.76h.62v3.14h2.25v2.1h-2.25v5.05c0,1.02.22,1.58.92,1.58.47,0,.92-.22,1.41-.49v2.43c-.97.5-1.66.67-2.43.67-1.81,0-2.87-.94-2.87-3.12v-6.11h-1.39v-.72l3.74-4.53Z"/>
    </g>
    <rect class="cls-2" y="26.43" width="39.19" height="7.27"/>
    <rect class="cls-1" x="50.45" y="33.09" width="2.7" height="2.7"/>
    <g id="UChicago">
      <path class="cls-1" d="M21.95,16.16c-1.52,0-3.37-1.07-3.37-3.66v-6.07l.19-.05,1.98,4.36,3.32-1.77-1.98-4.09-5.57,1.93c-1.5.51-1.79,1.34-1.79,5.4,0,3.71,0,4.49,2.09,5.88.51.35,1.02.61,1.52.93.26.14.5.31.72.51,1.55-1.5,3.53-2.65,5.43-3.88l-.19-.35c-.69.46-1.41.86-2.35.86ZM13.05,16.48c-.51,0-.93-.35-.93-1.28v-5.96c0-1.02.19-1.47.93-1.47h.43v-.32c-1.42-.35-2.51-1.34-3.4-2.57-.46,1.1-1.36,2.19-2.73,2.57v.32c.53.03.75.35.75.85v7.25l-.8.56c-.18.14-.41.22-.64.23-.51,0-.64-.61-.64-1.1v-6.89c0-.91-.03-2.43-2.17-3.8l-3.85,3.23.13.27c.4-.27.64-.48,1.02-.48.46,0,.86.37.86,1.23v6.07c0,1.04-.4,1.39-1.44,1.39v.32c1.36.53,2.43,1.58,3.16,2.62l4.39-3.21c.03,1.74,1.16,2.49,2.46,3.21l3.53-3.21-.2-.35c-.2.22-.55.51-.84.51ZM30.13,8.1V3.89c0-1.93.35-3.4,2.43-3.4h.59V.01h-.16c-3.5,0-6.47.91-6.85,3.55h-.05c-.25-.89-.71-1.72-1.34-2.41l-.29.29c.72.56,1.66,2.7,1.66,4.44v9.28c0,1.07-.19,1.58-1.36,1.55v.32c1.42.43,2.51,1.34,3.4,2.49,1.04-1.05,2.21-1.97,3.48-2.73l-.11-.36c-.2.18-.46.28-.72.29-.51,0-.67-.43-.67-1.16v-6.99l.88-.64c.16-.14.37-.21.59-.21.67,0,.77.86.77,1.71v7.03c0,4.81-.22,4.47-2.92,5.68l.19.38c1.34-.72,2.73-1.39,3.96-2.27,3.11-2.24,2.8-2.02,2.8-5.76v-5.19c0-1.82-.32-2.57-1.87-4.44l-4.39,3.22ZM40.57,4.34c1.12-.61,2.19-1.39,2.19-2.49,0-1.2-.96-1.86-1.93-1.86-.88,0-1.93.64-1.93,1.74,0,1,.85,1.94,1.66,2.61ZM43.7,16.51c-.46,0-.86-.37-.86-1.04v-6.26c0-1.04.4-1.39,1.45-1.39v-.31c-1.36-.53-2.43-1.58-3.4-2.62l-3.75,3.05.23.27c.25-.23.55-.37.88-.43.56,0,.56.61.56,1.44v6.52c0,.91.03,2.43,2.16,3.8l3.85-3.23-.13-.27c-.39.27-.64.48-1.01.48h0ZM67.12,16.67c-.72,0-.8-1.04-.8-1.79v-5.4c0-.96.48-1.34,1.5-1.34v-.32c-2.03-.43-4.09-1.79-5.05-2.94-1.42,1.09-3,1.97-4.69,2.59-1.5.59-2.03,1.16-2.03,2.43v5.94c0,1.6.27,2.38,2.49,3.69,1.21-1.1,2.48-2.12,3.82-3.05.08,1.26,1.28,2.25,2.41,3.05,1.08-1.1,2.26-2.11,3.53-3l-.16-.29c-.48.24-.7.43-1.02.43h0ZM62.31,16l-1.02.75c-.16.12-.36.19-.56.19-.51,0-.67-.53-.67-1.28V7.23c.64.59,1.44,1.34,2.25,1.68v7.09ZM75.65,4.88c-2.7,2.7-6.36,2.55-6.36,4.49v6.47c0,1.6.27,2.38,2.49,3.69,1.21-1.1,2.49-1.8,3.82-2.74,0,3.26,2.06,2.46,2.06,4.47s-2,2.73-3.71,2.73c-.35,0-1.62-.05-1.62-.48,0-.48,1.66-.03,1.66-1.87.03-1.23-1.28-1.71-2.32-1.71s-2.01.64-2.01,1.77c0,2.51,3.34,2.78,5.16,2.78,2.81,0,6.23-1.69,6.23-4.9,0-.76-.25-1.49-.72-2.09-.39-.48-.77-1.13-.77-1.53v-6.48c0-.96.48-1.34,1.5-1.34v-.32c-2.06-.42-3.94-1.44-5.4-2.94h0ZM75.55,16l-1.02.75c-.16.12-.36.19-.56.19-.51,0-.67-.72-.67-1.52v-7.75c.68.56,1.44,1.03,2.25,1.39v6.95ZM52.79,16.16c-1.52,0-3.37-1.07-3.37-3.66v-6.07l.19-.05,1.98,4.36,3.31-1.77-1.98-4.09-5.57,1.93c-1.5.51-1.79,1.34-1.79,5.4,0,3.71,0,4.49,2.09,5.88.51.35,1.02.61,1.52.93.26.14.5.31.72.51,1.55-1.5,3.53-2.65,5.43-3.88l-.19-.35c-.7.46-1.42.86-2.36.86h0ZM90.01,4.88c-1.77,1.82-4.87,2.35-7.46,2.27v7.81c0,.32-.05,1.02-.99,1.1v.32c2.06.56,3.88,1.77,5.4,3.16.75-1.44,1.74-1.98,3.21-2.32,2.22-.54,2.65-1.1,2.65-5.8,0-3.7-.29-4.77-2.81-6.53ZM88.8,16.53c-.67-.65-1.42-1.21-2.25-1.66v-7.68c1.87.4,2.25,1.26,2.25,2.49v6.85Z"/>
    </g>
  </g>
</svg>