<?xml version="1.0" encoding="UTF-8"?>
<svg id="Layer_2" data-name="Layer 2" xmlns="http://www.w3.org/2000/svg" viewBox="0 0 107.54 20.46">
  <defs>
    <style>
      .cls-1 {
        fill: #fff;
      }

      .cls-2 {
        fill: #7f1416;
      }

      .cls-3 {
        fill: #dd9a28;
      }

      .cls-4 {
        fill: #58595b;
      }
    </style>
  </defs>
  <g id="Layer_1-2" data-name="Layer 1">
    <g>
      <path class="cls-4" d="M28.31,9.27v1.79h-2.69v2.59h2.45v1.79h-2.45v2.91h2.82v1.79h-5.05v-10.87h4.92Z"/>
      <path class="cls-4" d="M34.08,9.27l1.81,3.68,1.81-3.68h1.99v10.87h-2.13v-6.87h-.03l-1.55,3.19h-.16l-1.56-3.19h-.03v6.87h-2.11v-10.87h1.98Z"/>
      <path class="cls-4" d="M46.15,14.82v3.35c0,.34.06.46.28.46.08,0,.28-.06.5-.24v1.37c-.47.39-.93.54-1.43.54-.63,0-1.07-.24-1.19-.89-.59.72-1.03.93-1.66.93-1.02,0-1.64-.86-1.64-1.84,0-.76.31-1.43,1.53-2.15.5-.29.94-.49,1.64-.81v-.49c0-.54-.24-.8-.78-.8-.57,0-1.3.31-2.05,1.07v-1.72c.76-.63,1.69-.89,2.52-.89,1.43,0,2.28.67,2.28,2.13ZM43.47,18.85c.28,0,.57-.24.72-.59v-1.71c-.86.49-1.25.98-1.25,1.61,0,.41.18.68.54.68Z"/>
      <path class="cls-4" d="M51.91,14.9c-.26-.18-.46-.26-.68-.26-1.01,0-1.3,1.55-1.42,3.14v2.36h-1.95v-7.27h1.87v1.98h.03c.42-1.5.83-2.08,1.53-2.08.31,0,.59.1.89.31l-.28,1.82Z"/>
      <path class="cls-4" d="M54.89,10.8h.41v2.07h1.48v1.38h-1.48v3.32c0,.67.15,1.04.6,1.04.31,0,.6-.15.93-.33v1.59c-.63.33-1.09.44-1.59.44-1.19,0-1.89-.62-1.89-2.05v-4.02h-.91v-.47l2.46-2.98Z"/>
    </g>
    <rect class="cls-4" x="29.22" y="13.61" width="1.77" height="1.77"/>
    <g>
      <path class="cls-2" d="M27.08.22v1.19h-1.16v5.49h-1.36V1.41h-1.17V.22h3.69Z"/>
      <path class="cls-2" d="M30.82,3.8v3.1h-1.2v-2.94c0-.36-.12-.57-.38-.57-.21,0-.4.15-.54.52v2.99h-1.2V.22h1.2v2.76h.02c.27-.43.56-.63.97-.63.66,0,1.13.5,1.13,1.45Z"/>
      <path class="cls-2" d="M34.7,4.72v.21h-1.95c.03.76.3,1.18.84,1.18.41,0,.71-.13,1.02-.41v.89c-.42.29-.84.42-1.31.42-1.28,0-1.79-1.03-1.79-2.31,0-1.42.65-2.38,1.65-2.38,1.13,0,1.54,1.16,1.54,2.4ZM33.54,4.27c0-.76-.12-1.1-.41-1.1-.26,0-.39.36-.39,1.06v.04h.8Z"/>
      <path class="cls-2" d="M39.15.22v4.76c0,.51.18.82.55.82.35,0,.57-.26.57-.8V.22h1.36v4.7c0,1.39-.83,2.07-1.93,2.07-1.18,0-1.91-.79-1.91-2.02V.22h1.36Z"/>
      <path class="cls-2" d="M45.9,3.8v3.1h-1.21v-2.95c0-.36-.11-.57-.37-.57-.21,0-.4.16-.54.53v2.99h-1.2V2.43h1.2v.55h.02c.27-.43.56-.63.97-.63.66,0,1.13.5,1.13,1.45Z"/>
      <path class="cls-2" d="M48.05.73c0,.37-.3.67-.66.67s-.68-.3-.68-.67.31-.66.68-.66.66.29.66.66ZM47.98,2.43v4.47h-1.2V2.43h1.2Z"/>
      <path class="cls-2" d="M49.77,2.43l.54,2.29h.02l.55-2.29h1.25l-1.36,4.47h-.94l-1.36-4.47h1.3Z"/>
      <path class="cls-2" d="M55.52,4.72v.21h-1.95c.03.76.3,1.18.84,1.18.41,0,.71-.13,1.02-.41v.89c-.42.29-.84.42-1.31.42-1.28,0-1.79-1.03-1.79-2.31,0-1.42.65-2.38,1.65-2.38,1.13,0,1.54,1.16,1.54,2.4ZM54.36,4.27c0-.76-.12-1.1-.41-1.1-.26,0-.39.36-.39,1.06v.04h.8Z"/>
      <path class="cls-2" d="M58.74,3.68c-.16-.11-.28-.16-.42-.16-.62,0-.8.95-.87,1.93v1.45h-1.2V2.43h1.15v1.22h.02c.26-.92.51-1.28.94-1.28.19,0,.36.06.55.19l-.17,1.12Z"/>
      <path class="cls-2" d="M61.62,2.66v.94c-.31-.24-.62-.37-.93-.37-.22,0-.32.12-.32.27,0,.28.36.53.72.86.35.33.71.73.71,1.34,0,.77-.56,1.31-1.35,1.31-.38,0-.76-.09-1.19-.37v-1.03c.38.33.66.47,1,.47.18,0,.36-.11.36-.3,0-.28-.31-.52-.64-.83-.36-.34-.73-.76-.73-1.41,0-.72.54-1.22,1.29-1.22.35,0,.71.1,1.08.34Z"/>
      <path class="cls-2" d="M63.79.73c0,.37-.3.67-.66.67s-.68-.3-.68-.67.31-.66.68-.66.66.29.66.66ZM63.72,2.43v4.47h-1.2V2.43h1.2Z"/>
      <path class="cls-2" d="M65.77,1.16h.25v1.27h.91v.85h-.91v2.04c0,.41.09.64.37.64.19,0,.37-.09.57-.2v.98c-.39.2-.67.27-.98.27-.73,0-1.16-.38-1.16-1.26v-2.47h-.56v-.29l1.51-1.83Z"/>
      <path class="cls-2" d="M68.49,2.43l.61,2.1h.02l.6-2.1h1.21l-2.26,6.77h-1.16l1-2.99-1.28-3.78h1.26Z"/>
      <path class="cls-2" d="M77.1,4.68c0,1.51-.76,2.34-1.77,2.34-1.11,0-1.77-.94-1.77-2.34s.7-2.36,1.77-2.36,1.77.86,1.77,2.36ZM75.33,6.03c.34,0,.52-.45.52-1.35s-.18-1.36-.53-1.36c-.32,0-.51.43-.51,1.36s.17,1.35.52,1.35Z"/>
      <path class="cls-2" d="M79.94.18v.97c-.06-.02-.19-.04-.31-.04-.38,0-.54.27-.54.78v.54h.56v.85h-.56v3.62h-1.21v-3.62h-.41v-.85h.41v-.53c0-1,.44-1.77,1.57-1.77.2,0,.36.02.49.05Z"/>
      <path class="cls-2" d="M82.36,3.61c0-2.08.81-3.48,2.29-3.48.44,0,.84.14,1.15.36v1.21c-.3-.26-.63-.38-.91-.38-.75,0-1.11.76-1.11,2.24s.35,2.24,1.1,2.24c.29,0,.59-.12.98-.48v1.23c-.39.31-.76.44-1.22.44-1.43,0-2.28-1.24-2.28-3.38Z"/>
      <path class="cls-2" d="M89.91,3.8v3.1h-1.2v-2.94c0-.36-.12-.57-.38-.57-.21,0-.4.15-.54.52v2.99h-1.2V.22h1.2v2.76h.02c.27-.43.56-.63.97-.63.66,0,1.13.5,1.13,1.45Z"/>
      <path class="cls-2" d="M92.06.73c0,.37-.3.67-.66.67s-.68-.3-.68-.67.31-.66.68-.66.66.29.66.66ZM91.99,2.43v4.47h-1.2V2.43h1.2Z"/>
      <path class="cls-2" d="M95.5,3.61c-.25-.2-.47-.26-.66-.26-.56,0-.87.55-.87,1.31,0,.8.36,1.31.91,1.31.23,0,.43-.07.69-.27v1.04c-.33.2-.7.27-.99.27-1.1,0-1.86-.94-1.86-2.31s.75-2.38,1.86-2.38c.32,0,.58.07.92.23v1.06Z"/>
      <path class="cls-2" d="M99.2,3.63v2.06c0,.21.04.28.17.28.05,0,.17-.04.31-.15v.84c-.29.24-.57.33-.88.33-.39,0-.66-.15-.73-.55-.36.44-.63.57-1.02.57-.63,0-1.01-.53-1.01-1.13,0-.47.19-.88.94-1.32.31-.18.58-.3,1.01-.5v-.3c0-.33-.15-.49-.48-.49-.35,0-.8.19-1.26.66v-1.06c.47-.39,1.04-.55,1.55-.55.88,0,1.4.41,1.4,1.31ZM97.55,6.11c.17,0,.35-.15.44-.36v-1.05c-.53.3-.77.6-.77.99,0,.25.11.42.33.42Z"/>
      <path class="cls-2" d="M103.62,2.39v.84h-.63c.16.24.24.58.24.95,0,.53-.15.94-.44,1.22-.27.27-.59.4-1.02.45-.35.04-.48.08-.48.26,0,.21.23.26.57.3.48.05.98.15,1.32.41.32.24.44.64.44,1.01,0,.83-.65,1.44-1.88,1.44s-1.81-.56-1.81-1.23c0-.47.3-.86.78-1.01-.3-.15-.47-.36-.47-.67,0-.28.17-.54.6-.69-.49-.32-.73-.85-.73-1.53,0-1.06.6-1.75,1.66-1.75h1.85ZM101.77,8.51c.46,0,.78-.24.78-.6,0-.34-.31-.58-.8-.58-.43,0-.73.22-.73.58s.28.6.75.6ZM101.68,5.01c.29,0,.48-.31.48-.87s-.19-.89-.48-.89-.49.31-.49.86c0,.58.2.9.49.9Z"/>
      <path class="cls-2" d="M107.54,4.68c0,1.51-.76,2.34-1.77,2.34-1.11,0-1.77-.94-1.77-2.34s.7-2.36,1.77-2.36,1.77.86,1.77,2.36ZM105.77,6.03c.34,0,.52-.45.52-1.35s-.18-1.36-.53-1.36c-.32,0-.51.43-.51,1.36s.17,1.35.52,1.35Z"/>
    </g>
    <circle class="cls-3" cx="10.23" cy="10.23" r="10.23"/>
    <ellipse class="cls-1" cx="10.31" cy="10.23" rx="7.24" ry="7.04"/>
    <path class="cls-2" d="M10.1,2.35v1.44c0,.38-.31.69-.69.69h-2.87c-.38,0-.69.31-.69.69v2.7c0,.38.31.69.69.69h2.48c.38,0,.69.31.69.69v1.44c0,.38-.31.69-.69.69h-2.48c-.38,0-.69.31-.69.69v3.22c0,.38.31.69.69.69h3.07c.38,0,.69.31.69.69v1.44c0,.38-.31.69-.69.69H3.03c-.38,0-.69-.31-.69-.69V2.35c0-.38.31-.69.69-.69h6.39c.38,0,.69.31.69.69Z"/>
    <rect class="cls-2" x="13.57" y="8.56" width="2.82" height="2.82" rx=".43" ry=".43"/>
  </g>
</svg>