<?xml version="1.0" encoding="UTF-8"?>
<svg id="Layer_2" data-name="Layer 2" xmlns="http://www.w3.org/2000/svg" viewBox="0 0 92.81 38.47">
  <defs>
    <style>
      .cls-1 {
        fill: #7f1416;
      }

      .cls-2 {
        fill: #dd9a28;
      }
    </style>
  </defs>
  <g id="Layer_1-2" data-name="Layer 1">
    <rect class="cls-1" y="32.84" width="52.8" height="5.43"/>
    <g>
      <path class="cls-1" d="M60.09,25.94v2.03h-3.03v2.94h2.75v2.03h-2.75v3.31h3.18v2.03h-5.69v-12.33h5.54Z"/>
      <path class="cls-1" d="M66.68,25.94l2.05,4.17,2.05-4.17h2.25v12.33h-2.42v-7.79h-.04l-1.75,3.62h-.18l-1.77-3.62h-.04v7.79h-2.4v-12.33h2.25Z"/>
      <path class="cls-1" d="M80.38,32.23v3.8c0,.39.07.52.31.52.09,0,.31-.07.57-.28v1.55c-.54.44-1.05.61-1.62.61-.72,0-1.22-.28-1.35-1.02-.67.81-1.16,1.05-1.88,1.05-1.16,0-1.86-.98-1.86-2.09,0-.87.35-1.62,1.74-2.44.57-.33,1.07-.55,1.86-.92v-.55c0-.61-.28-.9-.89-.9-.65,0-1.48.35-2.33,1.22v-1.96c.87-.72,1.92-1.02,2.86-1.02,1.62,0,2.58.76,2.58,2.42ZM77.33,36.81c.31,0,.65-.28.81-.66v-1.94c-.98.55-1.42,1.11-1.42,1.83,0,.46.2.78.61.78Z"/>
      <path class="cls-1" d="M86.91,32.32c-.3-.2-.52-.3-.78-.3-1.15,0-1.48,1.75-1.61,3.56v2.68h-2.22v-8.25h2.12v2.25h.04c.48-1.7.94-2.36,1.74-2.36.35,0,.66.11,1.02.35l-.31,2.07Z"/>
      <path class="cls-1" d="M90.29,27.67h.46v2.34h1.68v1.57h-1.68v3.77c0,.76.17,1.18.68,1.18.35,0,.68-.17,1.05-.37v1.81c-.72.37-1.24.5-1.81.5-1.35,0-2.14-.7-2.14-2.33v-4.56h-1.03v-.54l2.79-3.38Z"/>
    </g>
    <rect class="cls-2" y="25.94" width="52.8" height="5.43"/>
    <rect class="cls-1" x="61.2" y="30.9" width="2.01" height="2.01"/>
    <g id="UChicago">
      <path class="cls-1" d="M21.95,16.16c-1.52,0-3.37-1.07-3.37-3.66v-6.07l.19-.05,1.98,4.36,3.32-1.77-1.98-4.09-5.57,1.93c-1.5.51-1.79,1.34-1.79,5.4,0,3.71,0,4.49,2.09,5.88.51.35,1.02.61,1.52.93.26.14.5.31.72.51,1.55-1.5,3.53-2.65,5.43-3.88l-.19-.35c-.69.46-1.41.86-2.35.86ZM13.05,16.48c-.51,0-.93-.35-.93-1.28v-5.96c0-1.02.19-1.47.93-1.47h.43v-.32c-1.42-.35-2.51-1.34-3.4-2.57-.46,1.1-1.36,2.19-2.73,2.57v.32c.53.03.75.35.75.85v7.25l-.8.56c-.18.14-.41.22-.64.23-.51,0-.64-.61-.64-1.1v-6.89c0-.91-.03-2.43-2.17-3.8l-3.85,3.23.13.27c.4-.27.64-.48,1.02-.48.46,0,.86.37.86,1.23v6.07c0,1.04-.4,1.39-1.44,1.39v.32c1.36.53,2.43,1.58,3.16,2.62l4.39-3.21c.03,1.74,1.16,2.49,2.46,3.21l3.53-3.21-.2-.35c-.2.22-.55.51-.84.51ZM30.13,8.1V3.89c0-1.93.35-3.4,2.43-3.4h.59V.01h-.16c-3.5,0-6.47.91-6.85,3.55h-.05c-.25-.89-.71-1.72-1.34-2.41l-.29.29c.72.56,1.66,2.7,1.66,4.44v9.28c0,1.07-.19,1.58-1.36,1.55v.32c1.42.43,2.51,1.34,3.4,2.49,1.04-1.05,2.21-1.97,3.48-2.73l-.11-.36c-.2.18-.46.28-.72.29-.51,0-.67-.43-.67-1.16v-6.99l.88-.64c.16-.14.37-.21.59-.21.67,0,.77.86.77,1.71v7.03c0,4.81-.22,4.47-2.92,5.68l.19.38c1.34-.72,2.73-1.39,3.96-2.27,3.11-2.24,2.8-2.02,2.8-5.76v-5.19c0-1.82-.32-2.57-1.87-4.44l-4.39,3.22ZM40.57,4.34c1.12-.61,2.19-1.39,2.19-2.49,0-1.2-.96-1.86-1.93-1.86-.88,0-1.93.64-1.93,1.74,0,1,.85,1.94,1.66,2.61ZM43.7,16.51c-.46,0-.86-.37-.86-1.04v-6.26c0-1.04.4-1.39,1.45-1.39v-.31c-1.36-.53-2.43-1.58-3.4-2.62l-3.75,3.05.23.27c.25-.23.55-.37.88-.43.56,0,.56.61.56,1.44v6.52c0,.91.03,2.43,2.16,3.8l3.85-3.23-.13-.27c-.39.27-.64.48-1.01.48h0ZM67.12,16.67c-.72,0-.8-1.04-.8-1.79v-5.4c0-.96.48-1.34,1.5-1.34v-.32c-2.03-.43-4.09-1.79-5.05-2.94-1.42,1.09-3,1.97-4.69,2.59-1.5.59-2.03,1.16-2.03,2.43v5.94c0,1.6.27,2.38,2.49,3.69,1.21-1.1,2.48-2.12,3.82-3.05.08,1.26,1.28,2.25,2.41,3.05,1.08-1.1,2.26-2.11,3.53-3l-.16-.29c-.48.24-.7.43-1.02.43h0ZM62.31,16l-1.02.75c-.16.12-.36.19-.56.19-.51,0-.67-.53-.67-1.28V7.23c.64.59,1.44,1.34,2.25,1.68v7.09ZM75.65,4.88c-2.7,2.7-6.36,2.55-6.36,4.49v6.47c0,1.6.27,2.38,2.49,3.69,1.21-1.1,2.49-1.8,3.82-2.74,0,3.26,2.06,2.46,2.06,4.47s-2,2.73-3.71,2.73c-.35,0-1.62-.05-1.62-.48,0-.48,1.66-.03,1.66-1.87.03-1.23-1.28-1.71-2.32-1.71s-2.01.64-2.01,1.77c0,2.51,3.34,2.78,5.16,2.78,2.81,0,6.23-1.69,6.23-4.9,0-.76-.25-1.49-.72-2.09-.39-.48-.77-1.13-.77-1.53v-6.48c0-.96.48-1.34,1.5-1.34v-.32c-2.06-.42-3.94-1.44-5.4-2.94h0ZM75.55,16l-1.02.75c-.16.12-.36.19-.56.19-.51,0-.67-.72-.67-1.52v-7.75c.68.56,1.44,1.03,2.25,1.39v6.95ZM52.79,16.16c-1.52,0-3.37-1.07-3.37-3.66v-6.07l.19-.05,1.98,4.36,3.31-1.77-1.98-4.09-5.57,1.93c-1.5.51-1.79,1.34-1.79,5.4,0,3.71,0,4.49,2.09,5.88.51.35,1.02.61,1.52.93.26.14.5.31.72.51,1.55-1.5,3.53-2.65,5.43-3.88l-.19-.35c-.7.46-1.42.86-2.36.86h0ZM90.01,4.88c-1.77,1.82-4.87,2.35-7.46,2.27v7.81c0,.32-.05,1.02-.99,1.1v.32c2.06.56,3.88,1.77,5.4,3.16.75-1.44,1.74-1.98,3.21-2.32,2.22-.54,2.65-1.1,2.65-5.8,0-3.7-.29-4.77-2.81-6.53ZM88.8,16.53c-.67-.65-1.42-1.21-2.25-1.66v-7.68c1.87.4,2.25,1.26,2.25,2.49v6.85Z"/>
    </g>
  </g>
</svg>