<?xml version="1.0" encoding="UTF-8"?>
<svg id="Layer_2" data-name="Layer 2" xmlns="http://www.w3.org/2000/svg" viewBox="0 0 21.07 22.39">
  <defs>
    <style>
      .cls-1 {
        stroke: #7f1416;
      }

      .cls-1, .cls-2 {
        fill: none;
        stroke-miterlimit: 10;
      }

      .cls-3 {
        fill: #fff;
      }

      .cls-2 {
        stroke: #fff;
      }

      .cls-4 {
        fill: #7f1416;
      }
    </style>
  </defs>
  <g id="Layer_1-2" data-name="Layer 1">
    <polygon class="cls-4" points="21.07 21.7 0 21.7 2 4.57 19.07 4.57 21.07 21.7"/>
    <g>
      <path class="cls-3" d="M3.94,19.65v.25h-1.95c.03.91.3,1.41.84,1.41.41,0,.71-.16,1.02-.49v1.06c-.42.35-.84.5-1.31.5-1.28,0-1.79-1.23-1.79-2.76,0-1.7.65-2.85,1.65-2.85,1.13,0,1.54,1.39,1.54,2.87ZM2.78,19.11c0-.91-.12-1.32-.41-1.32-.26,0-.39.43-.39,1.27v.05h.8Z"/>
      <path class="cls-3" d="M9.97,18.52v3.73h-1.2v-3.51c0-.45-.1-.71-.35-.71-.22,0-.37.16-.54.62v3.59h-1.12v-3.49c0-.49-.1-.72-.36-.72-.21,0-.36.19-.53.63v3.58h-1.2v-5.35h1.2v.66h.02c.27-.56.56-.75.94-.75.44,0,.74.28.96.9.34-.68.62-.9,1.06-.9.62,0,1.12.57,1.12,1.71Z"/>
      <path class="cls-3" d="M13.84,18.34v2.46c0,.25.04.33.17.33.05,0,.17-.05.31-.18v1.01c-.29.29-.57.39-.88.39-.39,0-.66-.18-.73-.66-.36.53-.63.68-1.02.68-.63,0-1.01-.63-1.01-1.35,0-.56.19-1.05.94-1.58.31-.22.58-.36,1.01-.6v-.36c0-.4-.15-.59-.48-.59-.35,0-.8.23-1.26.79v-1.27c.47-.47,1.04-.66,1.55-.66.88,0,1.4.49,1.4,1.57ZM12.19,21.31c.17,0,.35-.18.44-.43v-1.26c-.53.36-.77.72-.77,1.18,0,.3.11.5.33.5Z"/>
      <path class="cls-3" d="M17.38,18.4c-.16-.13-.28-.19-.42-.19-.62,0-.8,1.14-.87,2.31v1.73h-1.2v-5.35h1.15v1.46h.02c.26-1.1.51-1.53.94-1.53.19,0,.36.07.55.23l-.17,1.34Z"/>
      <path class="cls-3" d="M19.21,15.39h.25v1.52h.91v1.02h-.91v2.44c0,.49.09.77.37.77.19,0,.37-.11.57-.24v1.17c-.39.24-.67.32-.98.32-.73,0-1.16-.45-1.16-1.51v-2.96h-.56v-.35l1.51-2.19Z"/>
    </g>
    <g>
      <path class="cls-1" d="M6.52,4.57c0-2.25,1.79-4.07,4.01-4.07"/>
      <path class="cls-1" d="M14.55,4.57c0-2.25-1.79-4.07-4.01-4.07"/>
    </g>
    <line class="cls-2" x1="6.52" y1="4.57" x2="6.52" y2="8.55"/>
    <line class="cls-2" x1="14.55" y1="4.57" x2="14.55" y2="8.55"/>
  </g>
</svg>