<?xml version="1.0" encoding="UTF-8"?>
<svg id="Layer_2" data-name="Layer 2" xmlns="http://www.w3.org/2000/svg" viewBox="0 0 391.47 162.27">
  <defs>
    <style>
      .cls-1 {
        fill: #fff;
      }

      .cls-2 {
        fill: #dd9a28;
      }
    </style>
  </defs>
  <g id="Layer_1-2" data-name="Layer 1">
    <rect class="cls-1" y="138.53" width="222.71" height="22.89"/>
    <g>
      <path class="cls-1" d="M253.65,109.4v8.57h-12.88v12.38h11.7v8.57h-11.7v13.94h13.51v8.57h-24.19v-52.02h23.57Z"/>
      <path class="cls-1" d="M281.24,109.4l8.64,17.6,8.64-17.6h9.5v52.02h-10.2v-32.86h-.16l-7.4,15.26h-.78l-7.48-15.26h-.16v32.86h-10.12v-52.02h9.5Z"/>
      <path class="cls-1" d="M339.02,135.95v16.04c0,1.64.31,2.18,1.32,2.18.39,0,1.32-.31,2.41-1.17v6.54c-2.26,1.87-4.44,2.57-6.85,2.57-3.04,0-5.14-1.17-5.68-4.28-2.81,3.42-4.91,4.44-7.94,4.44-4.91,0-7.87-4.13-7.87-8.8,0-3.66,1.48-6.85,7.32-10.28,2.41-1.4,4.52-2.34,7.87-3.89v-2.34c0-2.57-1.17-3.82-3.74-3.82-2.72,0-6.23,1.48-9.81,5.14v-8.25c3.66-3.04,8.1-4.28,12.07-4.28,6.85,0,10.9,3.19,10.9,10.2ZM326.17,155.26c1.32,0,2.73-1.17,3.43-2.8v-8.18c-4.13,2.34-6,4.67-6,7.71,0,1.95.86,3.27,2.57,3.27Z"/>
      <path class="cls-1" d="M366.59,136.34c-1.25-.86-2.18-1.25-3.27-1.25-4.83,0-6.23,7.4-6.78,15.03v11.29h-9.35v-34.81h8.96v9.5h.15c2.03-7.16,3.97-9.97,7.32-9.97,1.48,0,2.8.47,4.28,1.48l-1.32,8.72Z"/>
      <path class="cls-1" d="M380.84,116.72h1.95v9.89h7.09v6.62h-7.09v15.89c0,3.19.7,4.98,2.88,4.98,1.48,0,2.88-.7,4.44-1.56v7.63c-3.04,1.56-5.22,2.1-7.63,2.1-5.68,0-9.03-2.96-9.03-9.81v-19.24h-4.36v-2.26l11.76-14.25Z"/>
    </g>
    <rect class="cls-2" y="109.39" width="222.71" height="22.89"/>
    <rect class="cls-1" x="258.14" y="130.35" width="8.49" height="8.49"/>
    <g id="UChicago">
      <path class="cls-1" d="M92.59,68.17c-6.43,0-14.21-4.51-14.21-15.45v-25.6l.79-.23,8.34,18.39,13.99-7.45-8.35-17.25-23.49,8.12c-6.31,2.14-7.56,5.64-7.56,22.77,0,15.66,0,18.96,8.81,24.82,2.14,1.46,4.29,2.59,6.43,3.91,1.08.61,2.1,1.33,3.04,2.14,6.55-6.31,14.9-11.17,22.9-16.35l-.79-1.47c-2.92,1.93-5.96,3.64-9.9,3.64ZM55.04,69.52c-2.14,0-3.91-1.46-3.91-5.41v-25.15c0-4.29.79-6.2,3.91-6.2h1.8v-1.36c-5.98-1.47-10.6-5.64-14.33-10.82-1.96,4.62-5.74,9.25-11.5,10.82v1.36c2.25.11,3.16,1.46,3.16,3.6v30.56l-3.39,2.37c-.78.6-1.73.95-2.71.98-2.14,0-2.7-2.59-2.7-4.63v-29.06c0-3.83-.12-10.26-9.14-16.01L0,34.21l.56,1.14c1.69-1.14,2.71-2.04,4.29-2.04,1.96,0,3.61,1.58,3.61,5.19v25.6c0,4.39-1.69,5.87-6.09,5.87v1.37c5.75,2.25,10.26,6.66,13.31,11.05l18.5-13.54c.11,7.33,4.89,10.49,10.37,13.54l14.89-13.55-.86-1.47c-.83.91-2.3,2.14-3.53,2.14ZM127.08,34.16v-17.75c0-8.12,1.47-14.33,10.27-14.33h2.49V.05h-.69c-14.77,0-27.3,3.83-28.87,14.99h-.23c-1.07-3.77-3-7.25-5.64-10.15l-1.24,1.24c3.04,2.37,7,11.39,7,18.72v39.15c0,4.5-.79,6.66-5.75,6.54v1.35c5.98,1.81,10.6,5.64,14.33,10.49,4.4-4.43,9.33-8.29,14.68-11.5l-.47-1.5c-.85.75-1.92,1.19-3.05,1.24-2.13,0-2.82-1.81-2.82-4.89v-29.49l3.73-2.71c.69-.58,1.57-.9,2.48-.9,2.82,0,3.27,3.61,3.27,7.21v29.67c0,20.3-.93,18.86-12.32,23.97l.79,1.59c5.64-3.05,11.5-5.87,16.69-9.59,13.11-9.43,11.79-8.52,11.79-24.31v-21.88c0-7.67-1.35-10.82-7.9-18.72l-18.53,13.58ZM171.12,18.31c4.74-2.59,9.25-5.87,9.25-10.48,0-5.08-4.06-7.83-8.12-7.83-3.72,0-8.12,2.7-8.12,7.32-.03,4.23,3.58,8.17,7,10.99ZM184.32,69.63c-1.96,0-3.61-1.58-3.61-4.39v-26.42c0-4.4,1.69-5.87,6.1-5.87v-1.32c-5.75-2.25-10.27-6.66-14.33-11.05l-15.82,12.86.98,1.13c1.04-.95,2.34-1.58,3.73-1.8,2.37,0,2.37,2.59,2.37,6.09v27.52c0,3.84.11,10.27,9.13,16.01l16.25-13.64-.57-1.14c-1.66,1.14-2.68,2.04-4.26,2.04h.03ZM283.11,70.31c-3.04,0-3.39-4.4-3.39-7.56v-22.78c0-4.06,2.04-5.64,6.32-5.64v-1.36c-8.57-1.8-17.26-7.56-21.32-12.4-6.01,4.61-12.67,8.3-19.77,10.94-6.31,2.48-8.57,4.89-8.57,10.26v25.04c0,6.76,1.13,10.03,10.49,15.56,5.09-4.63,10.48-8.92,16.13-12.86.33,5.3,5.41,9.47,10.15,12.86,4.57-4.66,9.55-8.88,14.89-12.63l-.68-1.24c-2.03,1.02-2.94,1.81-4.29,1.81h.03ZM262.82,67.49l-4.29,3.16c-.68.52-1.51.8-2.37.78-2.14,0-2.82-2.25-2.82-5.41V30.5c2.7,2.48,6.09,5.64,9.47,7.11v29.89ZM319.09,20.57c-11.39,11.39-26.84,10.77-26.84,18.95v27.3c0,6.76,1.13,10.03,10.48,15.56,5.1-4.62,10.48-7.6,16.13-11.54,0,13.76,8.68,10.38,8.68,18.83s-8.46,11.51-15.66,11.51c-1.47,0-6.85-.23-6.85-2.04,0-2.03,6.99-.11,6.99-7.89.12-5.19-5.41-7.22-9.79-7.22s-8.47,2.71-8.47,7.45c0,10.6,14.1,11.74,21.77,11.74,11.85,0,26.29-7.12,26.29-20.65.01-3.2-1.06-6.31-3.05-8.81-1.66-2.03-3.23-4.76-3.23-6.46v-27.33c0-4.06,2.03-5.64,6.31-5.64v-1.36c-8.67-1.75-16.61-6.07-22.79-12.4h.03ZM318.64,67.49l-4.29,3.16c-.68.51-1.51.79-2.37.78-2.14,0-2.82-3.04-2.82-6.43v-32.71c2.88,2.37,6.07,4.35,9.47,5.87v29.32ZM222.66,68.17c-6.43,0-14.21-4.51-14.21-15.45v-25.6l.79-.23,8.35,18.39,13.98-7.45-8.34-17.25-23.49,8.12c-6.32,2.14-7.56,5.64-7.56,22.77,0,15.66,0,18.96,8.81,24.82,2.15,1.46,4.29,2.59,6.43,3.91,1.08.61,2.1,1.33,3.04,2.14,6.55-6.31,14.9-11.17,22.9-16.35l-.79-1.47c-2.95,1.93-5.99,3.64-9.94,3.64h.03ZM379.63,20.57c-7.45,7.66-20.55,9.92-31.47,9.58v32.93c0,1.36-.23,4.29-4.17,4.63v1.35c8.68,2.37,16.35,7.45,22.78,13.31,3.16-6.09,7.33-8.35,13.54-9.79,9.36-2.26,11.17-4.63,11.17-24.47,0-15.6-1.24-20.1-11.84-27.55ZM374.55,69.74c-2.82-2.75-6.01-5.11-9.47-6.99V30.38c7.9,1.69,9.47,5.3,9.47,10.49v28.87Z"/>
    </g>
  </g>
</svg>